<?xml version="1.0" encoding="UTF-8" standalone="no"?>
<svg
   xmlns:dc="http://purl.org/dc/elements/1.1/"
   xmlns:cc="http://creativecommons.org/ns#"
   xmlns:rdf="http://www.w3.org/1999/02/22-rdf-syntax-ns#"
   xmlns:svg="http://www.w3.org/2000/svg"
   xmlns="http://www.w3.org/2000/svg"
   xmlns:sodipodi="http://sodipodi.sourceforge.net/DTD/sodipodi-0.dtd"
   xmlns:inkscape="http://www.inkscape.org/namespaces/inkscape"
   aria-hidden="true"
   focusable="false"
   data-prefix="fas"
   data-icon="check-square"
   class="svg-inline--fa fa-check-square fa-w-14"
   role="img"
   viewBox="0 0 448 512"
   version="1.1"
   id="svg4"
   sodipodi:docname="favicon.svg"
   inkscape:version="1.0 (4035a4fb49, 2020-05-01)">
  <metadata
     id="metadata10">
    <rdf:RDF>
      <cc:Work
         rdf:about="">
        <dc:format>image/svg+xml</dc:format>
        <dc:type
           rdf:resource="http://purl.org/dc/dcmitype/StillImage" />
      </cc:Work>
    </rdf:RDF>
  </metadata>
  <defs
     id="defs8" />
  <sodipodi:namedview
     inkscape:document-rotation="0"
     pagecolor="#ffffff"
     bordercolor="#666666"
     borderopacity="1"
     objecttolerance="10"
     gridtolerance="10"
     guidetolerance="10"
     inkscape:pageopacity="0"
     inkscape:pageshadow="2"
     inkscape:window-width="1920"
     inkscape:window-height="1001"
     id="namedview6"
     showgrid="false"
     inkscape:zoom="1.6210938"
     inkscape:cx="224"
     inkscape:cy="277.38474"
     inkscape:window-x="-9"
     inkscape:window-y="1341"
     inkscape:window-maximized="1"
     inkscape:current-layer="svg4" />
  <path
     fill="currentColor"
     d="M400 480H48c-26.51 0-48-21.49-48-48V80c0-26.51 21.49-48 48-48h352c26.51 0 48 21.49 48 48v352c0 26.51-21.49 48-48 48zm-204.686-98.059l184-184c6.248-6.248 6.248-16.379 0-22.627l-22.627-22.627c-6.248-6.248-16.379-6.249-22.628 0L184 302.745l-70.059-70.059c-6.248-6.248-16.379-6.248-22.628 0l-22.627 22.627c-6.248 6.248-6.248 16.379 0 22.627l104 104c6.249 6.25 16.379 6.25 22.628.001z"
     id="path2"
     style="fill:#1089b1;fill-opacity:1" />
  <path
     id="path830"
     d="m 181.74458,386.1632 c -5.1986,-1.22277 -5.18156,-1.20689 -60.03277,-55.94852 -32.429932,-32.36514 -54.984479,-55.34026 -55.724983,-56.76408 -1.907933,-3.66853 -2.120248,-8.06511 -0.585788,-12.13036 1.143043,-3.02827 2.893611,-5.00903 15.327825,-17.34329 15.097399,-14.97605 15.843952,-15.50099 22.044786,-15.50099 6.61907,0 6.26556,-0.3017 45.05029,38.44763 19.68196,19.66399 36.05718,35.75271 36.3894,35.75271 0.33221,0 35.02783,-34.3776 77.10137,-76.39467 83.26584,-83.15409 77.4681,-77.82219 84.62128,-77.82219 5.46626,0 7.95947,1.82524 22.52308,16.48871 12.7618,12.8493 13.38356,13.58661 14.39476,17.07003 1.2352,4.25505 0.93857,7.76755 -0.98204,11.62877 -0.90527,1.81997 -29.76856,31.10883 -94.54647,95.94056 -75.4936,75.5563 -93.83053,93.60205 -96.32773,94.79811 -3.19311,1.52937 -7.10954,2.28175 -9.25301,1.77758 z"
     style="fill:#ffffff;stroke-width:0.616867;fill-opacity:1" />
</svg>
